<?xml version="1.0" standalone="no"?>
<!DOCTYPE svg PUBLIC "-//W3C//DTD SVG 20010904//EN"
 "http://www.w3.org/TR/2001/REC-SVG-20010904/DTD/svg10.dtd">
<svg version="1.0" xmlns="http://www.w3.org/2000/svg"
 width="700.000000pt" height="700.000000pt" viewBox="0 0 700.000000 700.000000"
 preserveAspectRatio="xMidYMid meet">
<metadata>
Created by potrace 1.14, written by Peter Selinger 2001-2017
</metadata>
<g transform="translate(0.000000,700.000000) scale(0.100000,-0.100000)"
fill="#000000" stroke="none">
<path d="M2665 6983 c-147 -31 -262 -92 -370 -198 -109 -106 -177 -223 -210
-365 -17 -70 -18 -159 -19 -1245 -1 -643 2 -1195 7 -1225 23 -155 101 -306
216 -420 140 -139 312 -214 506 -219 44 -1 82 -4 84 -7 3 -3 6 -67 6 -142 2
-161 13 -219 65 -327 61 -128 172 -236 300 -292 l45 -20 0 -207 c-1 -228 8
-295 52 -384 34 -70 131 -171 199 -205 112 -57 109 -57 756 -59 551 -3 599 -4
615 -20 15 -15 17 -42 17 -215 l1 -198 -1570 -5 c-1458 -5 -1572 -6 -1601 -22
-36 -20 -81 -70 -97 -107 -6 -17 -11 -147 -11 -353 -1 -180 -4 -329 -7 -332
-3 -3 -340 -6 -748 -6 -708 0 -744 -1 -779 -19 -83 -43 -128 -120 -119 -202
10 -80 43 -129 112 -167 28 -16 284 -17 3370 -20 2959 -2 3345 -1 3380 13 110
41 164 166 116 270 -22 49 -70 96 -113 112 -24 8 -232 12 -775 12 -409 1 -743
4 -744 9 -1 4 -2 291 -3 637 -3 575 -4 634 -21 680 -55 157 -147 255 -291 312
l-69 27 -603 2 c-532 2 -606 5 -628 19 -13 8 -24 21 -25 28 -1 6 -2 97 -3 201
-1 194 3 216 39 216 26 0 165 102 215 158 57 63 121 188 141 272 7 30 13 117
14 192 0 75 3 139 5 141 3 3 50 7 105 10 339 18 611 249 691 585 12 49 17 125
18 279 1 117 5 216 9 219 4 4 436 8 959 8 l953 1 35 22 c48 29 76 61 95 105
13 33 15 141 12 910 l-2 873 -30 44 c-19 29 -48 54 -79 70 l-49 25 -965 0
-965 1 -13 37 c-70 203 -234 374 -436 455 -122 50 -149 51 -963 51 -634 0
-772 -2 -830 -15z m1656 -424 c132 -62 205 -182 204 -334 l0 -40 -1026 -3
-1026 -2 3 65 c7 160 91 276 237 327 49 16 101 17 802 15 l750 -2 56 -26z
m2262 -518 c4 -1 7 -93 7 -205 l0 -203 -827 1 -828 1 0 200 c-1 110 0 202 1
205 2 4 1613 5 1647 1z m-2059 -1158 l-1 -888 -22 -58 c-40 -103 -151 -194
-256 -212 -22 -3 -364 -6 -761 -6 -647 0 -726 2 -770 17 -103 35 -177 106
-216 208 l-23 61 -1 875 c0 481 1 878 3 883 2 4 464 7 1026 7 l1022 0 -1 -887z
m2066 136 l0 -207 -827 2 -827 1 -1 200 0 200 30 5 c16 3 389 5 827 5 l798 0
0 -206z m-2888 -1721 c9 -24 0 -243 -10 -269 -17 -42 -64 -91 -107 -110 -113
-52 -254 14 -283 131 -5 21 -9 243 -5 253 2 4 93 7 203 7 149 0 199 -3 202
-12z m1233 -2685 l0 -203 -1435 0 -1436 0 1 205 0 205 1435 -2 1435 -3 0 -202z"/>
<path d="M3033 5350 c-74 -17 -140 -98 -147 -178 -7 -82 44 -169 118 -203 38
-17 75 -19 493 -19 420 0 454 1 495 19 100 43 148 160 109 264 -16 41 -86 105
-128 116 -44 13 -889 13 -940 1z"/>
<path d="M3025 4528 c-84 -30 -139 -108 -137 -193 1 -87 48 -158 124 -190 56
-23 920 -23 976 0 150 63 169 265 34 360 l-44 30 -461 2 c-311 1 -472 -2 -492
-9z"/>
</g>
</svg>
