<svg id="Capa_1" enable-background="new 0 0 512 512" height="512" viewBox="0 0 512 512" width="512" xmlns="http://www.w3.org/2000/svg"><g><path d="m301 285v-15h5c30.327 0 55-24.673 55-55v-25h136c8.284 0 15-6.716 15-15v-120c0-8.284-6.716-15-15-15h-138.096c-6.548-23.057-27.777-40-52.904-40h-100c-30.327 0-55 24.673-55 55v160c0 30.327 24.673 55 55 55h5v15c0 19.555 12.541 36.228 30 42.42v27.58c0 19.299 15.701 35 35 35h80c2.757 0 5 2.243 5 5v27h-225c-8.284 0-15 6.716-15 15v45h-106c-8.284 0-15 6.716-15 15s6.716 15 15 15h482c8.284 0 15-6.716 15-15s-6.716-15-15-15h-106v-87c0-19.299-15.701-35-35-35h-80c-2.757 0-5-2.243-5-5v-27.58c17.459-6.192 30-22.865 30-42.42zm60-215h121v30h-121zm0 60h121v30h-121zm0 352h-210v-30h210zm-180-427c0-13.785 11.215-25 25-25h100c13.785 0 25 11.215 25 25v5h-150zm25 185c-13.785 0-25-11.215-25-25v-125h150v125c0 13.785-11.215 25-25 25zm50 60c-8.271 0-15-6.729-15-15v-15h30v15c0 8.271-6.729 15-15 15z"/><path d="m286 120h-60c-8.284 0-15 6.716-15 15s6.716 15 15 15h60c8.284 0 15-6.716 15-15s-6.716-15-15-15z"/><path d="m286 180h-60c-8.284 0-15 6.716-15 15s6.716 15 15 15h60c8.284 0 15-6.716 15-15s-6.716-15-15-15z"/></g></svg>